<svg xmlns="http://www.w3.org/2000/svg" width="256" height="256" viewBox="0 0 256 256" role="img" aria-labelledby="title desc">
  <title id="title">Cortex</title>
  <desc id="desc">A conversation-shaped C surrounding a private local core.</desc>
  <defs>
    <linearGradient id="surface" x1="24" y1="18" x2="232" y2="240" gradientUnits="userSpaceOnUse">
      <stop stop-color="#17243a" />
      <stop offset="0.5" stop-color="#0e1727" />
      <stop offset="1" stop-color="#080d17" />
    </linearGradient>
    <linearGradient id="mark" x1="50" y1="48" x2="210" y2="210" gradientUnits="userSpaceOnUse">
      <stop stop-color="#67ebca" />
      <stop offset="0.5" stop-color="#5ab5f8" />
      <stop offset="1" stop-color="#8178f2" />
    </linearGradient>
    <linearGradient id="core" x1="112" y1="106" x2="146" y2="150" gradientUnits="userSpaceOnUse">
      <stop stop-color="#f0fffb" />
      <stop offset="1" stop-color="#b9dcff" />
    </linearGradient>
    <radialGradient id="bloom" cx="0" cy="0" r="1" gradientTransform="translate(104 82) rotate(48) scale(154)">
      <stop stop-color="#4ed7bd" stop-opacity="0.14" />
      <stop offset="0.48" stop-color="#4f87e8" stop-opacity="0.06" />
      <stop offset="1" stop-color="#050911" stop-opacity="0" />
    </radialGradient>
    <filter id="depth" x="-20%" y="-20%" width="150%" height="160%" color-interpolation-filters="sRGB">
      <feDropShadow dx="0" dy="9" stdDeviation="10" flood-color="#02050a" flood-opacity="0.52" />
    </filter>
    <filter id="core-glow" x="-70%" y="-70%" width="240%" height="240%" color-interpolation-filters="sRGB">
      <feGaussianBlur stdDeviation="5" result="blur" />
      <feMerge>
        <feMergeNode in="blur" />
        <feMergeNode in="SourceGraphic" />
      </feMerge>
    </filter>
  </defs>

  <rect width="256" height="256" fill="#070b13" />
  <rect x="7" y="7" width="242" height="242" rx="54" fill="url(#surface)" />
  <rect x="8.5" y="8.5" width="239" height="239" rx="52.5" fill="url(#bloom)" stroke="#dffcff" stroke-opacity="0.1" stroke-width="3" />

  <g filter="url(#depth)">
    <path d="M190 72C174 54 151 44 126 44c-47 0-84 37-84 84s37 84 84 84c26 0 49-11 65-30" fill="none" stroke="#02060c" stroke-opacity="0.46" stroke-width="36" stroke-linecap="round" />
    <path d="M190 72C174 54 151 44 126 44c-47 0-84 37-84 84s37 84 84 84c26 0 49-11 65-30" fill="none" stroke="url(#mark)" stroke-width="27" stroke-linecap="round" />
  </g>

  <path d="M128 104v10M105 128h10M128 142v10M141 115l7-7" fill="none" stroke="#80c9ed" stroke-opacity="0.55" stroke-width="4" stroke-linecap="round" />
  <circle cx="128" cy="101" r="4.5" fill="#67ebca" />
  <circle cx="102" cy="128" r="4.5" fill="#62c9e7" />
  <circle cx="128" cy="155" r="4.5" fill="#678ff1" />
  <circle cx="151" cy="105" r="4.5" fill="#64baf5" />

  <path d="M128 111l15 8.5v17L128 145l-15-8.5v-17Z" fill="#76c8ed" fill-opacity="0.2" filter="url(#core-glow)" />
  <path d="M128 111l15 8.5v17L128 145l-15-8.5v-17Z" fill="url(#core)" />
  <circle cx="128" cy="128" r="5.5" fill="#12263f" />
</svg>
